<svg width="1942" height="1809" viewBox="0 0 1942 1809" fill="none" xmlns="http://www.w3.org/2000/svg">
<path d="M1941.85 952.33C1941.34 919.909 1936.59 887.943 1927.73 857.319C1918.19 824.352 1904.12 791.927 1885.81 760.669C1897.37 689.122 1892.78 615.754 1872.12 542.229C1860.57 501.172 1843.98 461.019 1822.8 422.884C1803.13 387.465 1778.89 352.697 1750.74 319.546C1719.05 282.231 1682.84 247.429 1643.09 216.108C1606.19 187.028 1565.03 159.992 1520.74 135.75C1444.42 93.976 1362.21 61.448 1276.38 39.07C1195.66 18.024 1109.22 5.311 1019.47 1.284C1000.47 0.432 981.268 0 962.389 0C902.42 0 842.222 4.356 783.467 12.947C734.241 20.144 686.036 30.111 640.193 42.568C592.242 55.599 545.307 71.78 500.691 90.662C449.797 112.201 402.009 137.009 358.653 164.397C311.949 193.9 268.644 227.488 229.941 264.228C199.25 293.362 171.917 324.055 148.701 355.455C123.332 389.767 101.924 426.195 85.0707 463.728C34.2637 576.882 22.9797 690.81 51.3947 802.857C37.8667 824.032 27.0837 844.829 18.7087 865.845C12.4437 881.566 3.87673 905.783 1.80873 934.469C-1.54327 980.952 0.458733 1008.92 2.25473 1025.91C5.78173 1059.26 13.0257 1088.58 24.4017 1115.53C33.6797 1137.51 45.7357 1157.7 60.4017 1175.85C60.3637 1231.65 63.3817 1277.77 69.8867 1320.85C87.4347 1437.07 141.808 1535.56 231.495 1613.57C274.091 1650.62 322.83 1681.51 380.496 1707.99C441.852 1736.17 509.452 1757.78 587.157 1774.08C678.927 1793.33 774.897 1804.07 880.55 1806.94C916.958 1807.93 950.824 1808.41 984.085 1808.41C1079.43 1808.41 1165.54 1804.37 1247.33 1796.06C1319.12 1788.77 1378.69 1778.92 1434.82 1765.07C1505.67 1747.58 1566.51 1724.04 1620.8 1693.1C1715.19 1639.31 1784.25 1562.37 1826.07 1464.41C1848.42 1412.07 1863.69 1356.56 1872.76 1294.73C1879.81 1246.68 1882.37 1197.63 1880.54 1145.53C1889.56 1135.98 1897.6 1125.63 1904.59 1114.55C1917.89 1093.47 1927.35 1069.75 1932.72 1044.05C1939.25 1012.82 1942.32 981.959 1941.85 952.33Z" fill="white"/>
<path d="M1841.52 882.767C1832 849.863 1817.31 819.356 1798.68 790.754C1793.66 783.048 1791.71 776.055 1793.71 766.625C1807.93 699.492 1804.24 632.923 1785.72 567.037C1765.73 495.896 1729.57 433.54 1681.98 377.498C1624.31 309.579 1554.62 256.526 1476.81 213.937C1332.64 135.021 1177.14 97.5158 1013.85 90.1888C940.494 86.8978 867.338 90.3668 794.521 101.014C704.442 114.185 617.193 137.196 533.311 172.696C442.943 210.941 360.268 261.248 288.849 329.045C236.634 378.611 193.281 434.827 163.672 500.768C118.873 600.539 108.739 702.983 142.479 808.212C145.285 816.962 143.448 823.157 138.301 830.196C122.541 851.746 108.713 874.486 98.7793 899.415C93.3313 913.087 88.9683 927.014 87.9023 941.793C86.0793 967.082 85.4203 992.406 88.0893 1017.65C92.9093 1063.22 107.324 1104.65 141.597 1137.14C143.509 1138.95 145.029 1141.18 146.728 1143.21C146.728 1154 146.744 1164.64 146.725 1175.29C146.645 1219.94 148.53 1264.39 155.221 1308.71C169.768 1405.05 214.322 1484.46 287.569 1548.17C326.067 1581.66 369.285 1607.77 415.539 1629.01C475.75 1656.66 538.827 1675.37 603.539 1688.95C695.119 1708.15 787.913 1717.43 881.254 1719.96C999.896 1723.18 1118.49 1721.52 1236.76 1709.5C1295.82 1703.5 1354.39 1694.85 1412.05 1680.62C1469.17 1666.52 1524.21 1646.89 1575.55 1617.64C1652.24 1573.94 1708.76 1512.13 1743.46 1430.86C1763.7 1383.45 1776.54 1333.9 1784.01 1282.95C1791.68 1230.67 1793.01 1178.16 1789.73 1125.48C1789.36 1119.56 1789.68 1113.6 1789.68 1107.69C1792.61 1105.27 1795.06 1103.02 1797.73 1101.09C1823.22 1082.61 1838.52 1057.6 1844.9 1027.05C1855.01 978.714 1855.35 930.582 1841.52 882.767ZM273.867 580.67C289.29 538.241 312.6 500.411 341.517 465.914C381.751 417.915 429.911 379.25 483.065 346.598C556.941 301.217 636.85 270.457 720.815 249.834C816.638 226.299 914.014 217.73 1012.41 222.492C1138.12 228.575 1259.11 255.281 1373.27 309.538C1408.31 326.192 1441 346.753 1470.5 372.066C1494.06 392.282 1512.96 416.16 1525.79 444.605C1542.27 481.128 1544.86 519.415 1537.83 558.132C1522.6 642.05 1479.14 708.521 1410.53 758.878C1378.12 782.668 1342.83 801.283 1305.98 817.05C1285.17 825.957 1264.01 834.054 1243.12 842.77C1235.76 845.84 1228.53 849.341 1221.6 853.275C1217.64 855.522 1213.95 858.647 1210.94 862.073C1206.59 867.008 1207.32 874.485 1213.05 877.71C1219.29 881.222 1226.25 883.979 1233.23 885.566C1256.91 890.946 1281.02 889.934 1304.93 888.152C1370.9 883.236 1435.73 871.594 1499.19 852.769C1550.01 837.692 1597.84 816.298 1640.72 784.665C1642.82 783.115 1645.25 781.995 1647.59 780.8C1647.97 780.608 1648.68 781.074 1650.6 781.632C1649.2 785.224 1648.08 788.821 1646.44 792.166C1630.39 824.956 1607.8 852.692 1580.52 876.751C1548.3 905.176 1512.04 927.391 1473.48 946.063C1413.79 974.966 1350.92 994.51 1286.34 1008.63C1212.65 1024.75 1138 1033.68 1062.67 1038.09C987.98 1042.46 913.388 1042 838.854 1036.72C736.873 1029.49 636.37 1013.67 538.98 981.354C494.612 966.631 451.764 948.429 411.349 924.798C383.056 908.254 356.629 889.17 333.082 866.279C296.356 830.574 270.161 788.724 260.276 737.957C249.839 684.348 255.259 631.864 273.867 580.67ZM1670.03 1281.74C1661.93 1323.15 1642.62 1359.36 1615.49 1391.47C1590.28 1421.32 1559.96 1445.03 1526.46 1464.88C1476.78 1494.31 1423.14 1513.98 1367.58 1528.73C1306.3 1545.01 1243.93 1555.13 1180.87 1561.63C1097.23 1570.25 1013.38 1573.61 929.348 1572.31C858.668 1571.21 788.178 1566.75 718.192 1556.47C644.855 1545.7 572.922 1529.23 504.148 1500.82C458.966 1482.17 416.373 1458.96 378.502 1427.78C328.971 1387 292.324 1337.3 274.055 1275.12C267.072 1251.36 262.965 1227.13 263.4 1202.28C263.467 1198.44 264.152 1194.62 264.615 1190.17C270.858 1190.17 276.092 1189.64 281.185 1190.26C305.107 1193.18 329.108 1193.41 353.054 1191.67C415.334 1187.14 471.699 1203.34 523.035 1238.42C553.949 1259.54 582.308 1283.74 609.399 1309.44C630.667 1329.62 651.405 1350.35 672.268 1370.95C696.623 1394.99 723.593 1415.4 754.377 1430.58C788.975 1447.65 825.415 1457.26 864.144 1456.56C900.007 1455.92 933.858 1446.68 966.033 1431.02C991.953 1418.41 1015.45 1402.15 1037.53 1383.73C1045.19 1377.33 1052.86 1370.88 1060.92 1365C1100.79 1335.92 1145.41 1327.42 1193.63 1334.94C1220.71 1339.16 1246.67 1347.65 1272.9 1355.2C1297.83 1362.37 1322.8 1369.75 1348.18 1374.96C1375.11 1380.49 1402.41 1380.34 1429.44 1373.4C1457.11 1366.3 1477.41 1350.32 1488.25 1323.93C1494.55 1308.6 1498.82 1292.44 1503.77 1276.58C1507.93 1263.25 1511.23 1249.63 1515.83 1236.45C1527.94 1201.72 1551.9 1179.67 1587.9 1171.08C1616.89 1164.16 1645.9 1157.31 1676.09 1150.14C1677.06 1154.27 1678.36 1157.31 1678.4 1160.38C1678.99 1201.06 1677.87 1241.71 1670.03 1281.74Z" fill="black"/>
</svg>
