<?xml version="1.0" encoding="UTF-8" standalone="no"?>
<!DOCTYPE svg PUBLIC "-//W3C//DTD SVG 1.1//EN"
 "http://www.w3.org/Graphics/SVG/1.1/DTD/svg11.dtd">
<!-- Generated by graphviz version 10.0.1 (20240210.2158)
 -->
<!-- Title: docker Pages: 1 -->
<svg width="2138pt" height="2063pt"
 viewBox="0.00 0.00 513.00 495.00" xmlns="http://www.w3.org/2000/svg" xmlns:xlink="http://www.w3.org/1999/xlink">
<g id="graph0" class="graph" transform="scale(4.16667 4.16667) rotate(0) translate(4 491)">
<title>docker</title>
<polygon fill="white" stroke="none" points="-4,4 -4,-491 509,-491 509,4 -4,4"/>
<g id="clust1" class="cluster">
<title>cluster_estimate</title>
<polygon fill="none" stroke="black" points="8,-186.5 8,-419 432,-419 432,-186.5 8,-186.5"/>
<text text-anchor="middle" x="79" y="-401.7" font-family="Times,serif" font-size="14.00">Estimation &amp; Planning</text>
</g>
<g id="clust2" class="cluster">
<title>cluster_exec</title>
<polygon fill="none" stroke="black" points="176,-8 176,-167.5 497,-167.5 497,-8 176,-8"/>
<text text-anchor="middle" x="412.12" y="-150.2" font-family="Times,serif" font-size="14.00">Execution (weekly cadence)</text>
</g>
<!-- WhyEstimate -->
<g id="node1" class="node">
<title>WhyEstimate</title>
<polygon fill="none" stroke="black" points="282.12,-487 161.88,-487 161.88,-446 282.12,-446 282.12,-487"/>
<text text-anchor="middle" x="222" y="-469.7" font-family="baskerville" font-size="14.00">Align on Why</text>
<text text-anchor="middle" x="222" y="-453.2" font-family="baskerville" font-size="14.00">We are Estimating</text>
</g>
<!-- DoEstimate -->
<g id="node2" class="node">
<title>DoEstimate</title>
<polygon fill="none" stroke="black" points="282.12,-386.5 161.88,-386.5 161.88,-350.5 282.12,-350.5 282.12,-386.5"/>
<text text-anchor="middle" x="222" y="-363.45" font-family="baskerville" font-size="14.00">Estimate the Work</text>
</g>
<!-- WhyEstimate&#45;&gt;DoEstimate -->
<g id="edge1" class="edge">
<title>WhyEstimate&#45;&gt;DoEstimate</title>
<path fill="none" stroke="black" d="M222,-445.61C222,-431.91 222,-413.51 222,-398.23"/>
<polygon fill="black" stroke="black" points="225.5,-398.3 222,-388.3 218.5,-398.3 225.5,-398.3"/>
</g>
<!-- NegotiateEstimate -->
<g id="node3" class="node">
<title>NegotiateEstimate</title>
<polygon fill="none" stroke="black" points="287.38,-313.5 156.62,-313.5 156.62,-272.5 287.38,-272.5 287.38,-313.5"/>
<text text-anchor="middle" x="222" y="-296.2" font-family="baskerville" font-size="14.00">Present and Explain</text>
<text text-anchor="middle" x="222" y="-279.7" font-family="baskerville" font-size="14.00">the Estimate</text>
</g>
<!-- DoEstimate&#45;&gt;NegotiateEstimate -->
<g id="edge2" class="edge">
<title>DoEstimate&#45;&gt;NegotiateEstimate</title>
<path fill="none" stroke="black" d="M222,-350.08C222,-342.7 222,-333.85 222,-325.4"/>
<polygon fill="black" stroke="black" points="225.5,-325.4 222,-315.4 218.5,-325.4 225.5,-325.4"/>
</g>
<!-- ReduceScope -->
<g id="node4" class="node">
<title>ReduceScope</title>
<polygon fill="none" stroke="black" stroke-dasharray="5,2" points="424.12,-235.5 327.88,-235.5 327.88,-194.5 424.12,-194.5 424.12,-235.5"/>
<text text-anchor="middle" x="376" y="-218.2" font-family="baskerville" font-size="14.00">Reduce Scope</text>
<text text-anchor="middle" x="376" y="-201.7" font-family="baskerville" font-size="14.00">from Project</text>
</g>
<!-- NegotiateEstimate&#45;&gt;ReduceScope -->
<g id="edge3" class="edge">
<title>NegotiateEstimate&#45;&gt;ReduceScope</title>
<path fill="none" stroke="black" d="M262.46,-272.03C281.75,-262.51 305.02,-251.03 325.46,-240.94"/>
<polygon fill="black" stroke="black" points="326.77,-244.2 334.18,-236.64 323.67,-237.92 326.77,-244.2"/>
</g>
<!-- RemoveUncertainty -->
<g id="node5" class="node">
<title>RemoveUncertainty</title>
<polygon fill="none" stroke="black" stroke-dasharray="5,2" points="115.62,-235.5 16.38,-235.5 16.38,-194.5 115.62,-194.5 115.62,-235.5"/>
<text text-anchor="middle" x="66" y="-218.2" font-family="baskerville" font-size="14.00">Clarify areas</text>
<text text-anchor="middle" x="66" y="-201.7" font-family="baskerville" font-size="14.00">of Uncertainty</text>
</g>
<!-- NegotiateEstimate&#45;&gt;RemoveUncertainty -->
<g id="edge4" class="edge">
<title>NegotiateEstimate&#45;&gt;RemoveUncertainty</title>
<path fill="none" stroke="black" d="M181.01,-272.03C161.47,-262.51 137.9,-251.03 117.2,-240.94"/>
<polygon fill="black" stroke="black" points="118.87,-237.86 108.34,-236.63 115.8,-244.16 118.87,-237.86"/>
</g>
<!-- PrioritizeTasks -->
<g id="node6" class="node">
<title>PrioritizeTasks</title>
<polygon fill="none" stroke="black" points="292.25,-235.5 151.75,-235.5 151.75,-194.5 292.25,-194.5 292.25,-235.5"/>
<text text-anchor="middle" x="222" y="-218.2" font-family="baskerville" font-size="14.00">Hard&#45;prioritize</text>
<text text-anchor="middle" x="222" y="-201.7" font-family="baskerville" font-size="14.00">Every Feature or Task</text>
</g>
<!-- NegotiateEstimate&#45;&gt;PrioritizeTasks -->
<g id="edge7" class="edge">
<title>NegotiateEstimate&#45;&gt;PrioritizeTasks</title>
<path fill="none" stroke="black" d="M222,-272.03C222,-264.44 222,-255.6 222,-247.21"/>
<polygon fill="black" stroke="black" points="225.5,-247.35 222,-237.35 218.5,-247.35 225.5,-247.35"/>
</g>
<!-- ReduceScope&#45;&gt;DoEstimate -->
<g id="edge6" class="edge">
<title>ReduceScope&#45;&gt;DoEstimate</title>
<path fill="none" stroke="black" stroke-dasharray="1,5" d="M364.5,-235.95C351.77,-256.9 329.76,-290.01 305,-313.5 292.86,-325.02 277.94,-335.59 264.13,-344.26"/>
<polygon fill="black" stroke="black" points="262.33,-341.26 255.6,-349.44 265.97,-347.24 262.33,-341.26"/>
<text text-anchor="middle" x="365.62" y="-287.95" font-family="Times,serif" font-size="14.00">as needed</text>
</g>
<!-- RemoveUncertainty&#45;&gt;DoEstimate -->
<g id="edge5" class="edge">
<title>RemoveUncertainty&#45;&gt;DoEstimate</title>
<path fill="none" stroke="black" stroke-dasharray="1,5" d="M64.78,-235.92C64.55,-257.46 67.46,-291.64 85.75,-313.5 102.24,-333.22 126.94,-345.78 150.79,-353.77"/>
<polygon fill="black" stroke="black" points="149.63,-357.07 160.22,-356.68 151.69,-350.38 149.63,-357.07"/>
<text text-anchor="middle" x="112.62" y="-287.95" font-family="Times,serif" font-size="14.00">as needed</text>
</g>
<!-- SplitTasks -->
<g id="node7" class="node">
<title>SplitTasks</title>
<polygon fill="none" stroke="black" stroke-dasharray="5,2" points="260,-135 184,-135 184,-94 260,-94 260,-135"/>
<text text-anchor="middle" x="222" y="-117.7" font-family="baskerville" font-size="14.00">Split Tasks</text>
<text text-anchor="middle" x="222" y="-101.2" font-family="baskerville" font-size="14.00">as needed</text>
</g>
<!-- PrioritizeTasks&#45;&gt;SplitTasks -->
<g id="edge8" class="edge">
<title>PrioritizeTasks&#45;&gt;SplitTasks</title>
<path fill="none" stroke="black" d="M222,-194.07C222,-180.45 222,-162.13 222,-146.61"/>
<polygon fill="black" stroke="black" points="225.5,-146.92 222,-136.92 218.5,-146.92 225.5,-146.92"/>
</g>
<!-- DeliverTasks -->
<g id="node8" class="node">
<title>DeliverTasks</title>
<polygon fill="none" stroke="black" points="488.88,-135 331.12,-135 331.12,-94 488.88,-94 488.88,-135"/>
<text text-anchor="middle" x="410" y="-117.7" font-family="baskerville" font-size="14.00">Deliver and Demonstrate</text>
<text text-anchor="middle" x="410" y="-101.2" font-family="baskerville" font-size="14.00">One Week&#39;s Work</text>
</g>
<!-- SplitTasks&#45;&gt;DeliverTasks -->
<g id="edge9" class="edge">
<title>SplitTasks&#45;&gt;DeliverTasks</title>
<path fill="none" stroke="black" d="M260.19,-114.5C279.93,-114.5 299.67,-114.5 319.41,-114.5"/>
<polygon fill="black" stroke="black" points="319.19,-118 329.19,-114.5 319.19,-111 319.19,-118"/>
</g>
<!-- ReviseEstimate -->
<g id="node9" class="node">
<title>ReviseEstimate</title>
<polygon fill="none" stroke="black" points="385.38,-57 266.62,-57 266.62,-16 385.38,-16 385.38,-57"/>
<text text-anchor="middle" x="326" y="-39.7" font-family="baskerville" font-size="14.00">Revise Estimate</text>
<text text-anchor="middle" x="326" y="-23.2" font-family="baskerville" font-size="14.00">Given Work Done</text>
</g>
<!-- DeliverTasks&#45;&gt;ReviseEstimate -->
<g id="edge10" class="edge">
<title>DeliverTasks&#45;&gt;ReviseEstimate</title>
<path fill="none" stroke="black" d="M387.93,-93.53C378.28,-84.8 366.81,-74.43 356.38,-64.99"/>
<polygon fill="black" stroke="black" points="358.81,-62.46 349.04,-58.35 354.11,-67.65 358.81,-62.46"/>
</g>
<!-- ReviseEstimate&#45;&gt;SplitTasks -->
<g id="edge11" class="edge">
<title>ReviseEstimate&#45;&gt;SplitTasks</title>
<path fill="none" stroke="black" d="M298.86,-57.33C286.46,-66.39 271.6,-77.25 258.26,-87"/>
<polygon fill="black" stroke="black" points="256.56,-83.91 250.55,-92.64 260.69,-89.56 256.56,-83.91"/>
</g>
</g>
</svg>
